<?xml version="1.0" standalone="no"?>
<!DOCTYPE svg PUBLIC "-//W3C//DTD SVG 20010904//EN"
 "http://www.w3.org/TR/2001/REC-SVG-20010904/DTD/svg10.dtd">
<svg version="1.0" xmlns="http://www.w3.org/2000/svg"
 width="267.000000pt" height="189.000000pt" viewBox="0 0 267.000000 189.000000"
 preserveAspectRatio="xMidYMid meet">

<g transform="translate(0.000000,189.000000) scale(0.100000,-0.100000)"
fill="#000000" stroke="none">
<path d="M1037 1638 c-23 -11 -77 -100 -282 -463 -140 -247 -255 -459 -255
-471 -1 -72 53 -121 117 -109 59 11 77 24 117 88 l39 62 13 -59 c31 -133 136
-271 260 -340 199 -112 538 -133 719 -43 184 91 354 363 355 570 l0 47 -268 0
-268 0 -115 196 c-62 108 -115 200 -117 204 -10 26 196 29 274 4 29 -9 71 -31
92 -49 68 -59 155 -66 181 -16 43 80 -27 156 -204 217 -76 27 -88 29 -267 29
l-187 0 -28 49 c-15 27 -39 57 -53 68 -33 24 -88 31 -123 16z m132 -478 c36
-62 38 -72 23 -77 -9 -4 -68 -26 -131 -50 -62 -24 -116 -42 -118 -39 -2 2 21
46 53 98 55 90 96 138 121 138 6 0 30 -32 52 -70z m267 -456 c82 -135 150
-249 152 -254 4 -10 -31 -18 -124 -30 -220 -28 -409 71 -499 262 -60 129 -72
112 132 195 98 39 180 72 184 72 3 1 72 -110 155 -245z m378 1 c18 -17 26 -34
26 -57 0 -36 -19 -79 -36 -85 -8 -3 -86 118 -102 159 -2 4 16 8 41 8 33 0 51
-6 71 -25z"/>
<path d="M1775 1157 c-3 -7 -5 -52 -3 -98 3 -79 4 -84 26 -87 23 -3 23 -3 20
95 -3 84 -5 98 -21 101 -9 2 -19 -3 -22 -11z"/>
<path d="M1940 1157 c-23 -8 -41 -24 -53 -47 -21 -41 -15 -75 18 -109 44 -45
170 -38 196 11 22 41 -12 50 -47 13 -44 -48 -124 -23 -124 39 0 42 17 64 56
72 24 4 37 0 61 -20 30 -25 68 -27 60 -3 -14 42 -106 66 -167 44z"/>
<path d="M1522 1148 c3 -7 21 -14 41 -16 l36 -3 3 -77 c3 -69 5 -77 23 -77 18
0 20 8 23 77 l3 77 41 3 c23 2 43 9 46 16 3 9 -23 12 -108 12 -85 0 -111 -3
-108 -12z"/>
</g>
</svg>
